G04 --- HEADER BEGIN --- *
%TF.GenerationSoftware,LibrePCB,LibrePCB,0.1.5*%
%TF.CreationDate,2021-06-20T18:39:02*%
%TF.ProjectId,Project_1 - Project_1,33df2010-fc84-4cad-912d-d0e73ea2b767,v1*%
%TF.Part,Single*%
%FSLAX66Y66*%
%MOMM*%
G01*
G74*
G04 --- HEADER END --- *
G04 --- APERTURE LIST BEGIN --- *
%ADD10R,3.4X1.9*%
%ADD11R,1.6X1.05*%
%ADD12O,2.19X1.587*%
%ADD13R,2.19X1.587*%
%ADD14R,0.5X0.5*%
%ADD15R,1.4X1.0*%
%ADD16R,1.9X3.4*%
%ADD17C,0.7*%
%ADD18C,0.5*%
%ADD19C,0.0*%
G04 --- APERTURE LIST END --- *
G04 --- BOARD BEGIN --- *
D10*
X8255000Y5760000D03*
X8255000Y1860000D03*
D11*
X10160000Y21110000D03*
X10160000Y18260000D03*
X16510000Y21110000D03*
X16510000Y18260000D03*
X13970000Y5870000D03*
X13970000Y3020000D03*
D12*
X26670000Y12700000D03*
D13*
X26670000Y15240000D03*
D11*
X6360000Y21140000D03*
X6360000Y18290000D03*
X10160000Y12220000D03*
X10160000Y9370000D03*
D14*
X3175000Y5345000D03*
X3175000Y3545000D03*
D12*
X2540000Y18595000D03*
D13*
X2540000Y21135000D03*
D15*
X14140000Y10480000D03*
X16340000Y11430000D03*
X14140000Y12380000D03*
D10*
X20955000Y11385000D03*
X20955000Y15285000D03*
D16*
X7030000Y12065000D03*
X3130000Y12065000D03*
D17*
X24600000Y14100000D03*
X12300000Y19800000D03*
X14100000Y19800000D03*
X14100000Y21900000D03*
X4800000Y21900000D03*
X24600000Y16500000D03*
X2100000Y9300000D03*
X8100000Y20100000D03*
X4200000Y7200000D03*
X8100000Y21900000D03*
X23700000Y14100000D03*
X12300000Y21900000D03*
X2100000Y7200000D03*
X23700000Y16500000D03*
X4800000Y20400000D03*
X4200000Y9300000D03*
D18*
X3175000Y12020000D02*
X3175000Y5345000D01*
X6300000Y17100000D02*
X3130000Y13930000D01*
X6360000Y18290000D02*
X6300000Y18290000D01*
X3130000Y12065000D02*
X3175000Y12020000D01*
X6300000Y17100000D02*
X6300000Y18290000D01*
X3130000Y13930000D02*
X3130000Y12065000D01*
X20955000Y15285000D02*
X21000000Y15240000D01*
X21000000Y15240000D02*
X26670000Y15240000D01*
X14140000Y6040000D02*
X14140000Y10480000D01*
X8255000Y5760000D02*
X8365000Y5870000D01*
X8365000Y5870000D02*
X13970000Y5870000D01*
X13970000Y5870000D02*
X14140000Y6040000D01*
X16510000Y11600000D02*
X16725000Y11385000D01*
X16510000Y11600000D02*
X16510000Y18260000D01*
X16340000Y11430000D02*
X16510000Y11600000D01*
X16725000Y11385000D02*
X20955000Y11385000D01*
X10320000Y12380000D02*
X14140000Y12380000D01*
X10160000Y18260000D02*
X10160000Y12220000D01*
X7185000Y12220000D02*
X10160000Y12220000D01*
X10160000Y12220000D02*
X10320000Y12380000D01*
X7030000Y12065000D02*
X7185000Y12220000D01*
X10160000Y21135000D02*
X16510000Y21135000D01*
X16510000Y21135000D02*
X16510000Y21110000D01*
X6360000Y21135000D02*
X10160000Y21135000D01*
X2540000Y21135000D02*
X6360000Y21135000D01*
X10160000Y21135000D02*
X10160000Y21110000D01*
X6360000Y21135000D02*
X6360000Y21140000D01*
D19*
G36*
X29169327Y319500D02*
X29210000Y400000D01*
X29210000Y24030000D01*
X29190500Y24089327D01*
X29110000Y24130000D01*
X732403Y24130000D01*
X673076Y24110500D01*
X632438Y24032631D01*
X300035Y11401330D01*
X300000Y11398699D01*
X300000Y400000D01*
X319500Y340673D01*
X400000Y300000D01*
X1161013Y300000D01*
X1161013Y20041500D01*
X1156248Y20043066D01*
X1145000Y20065328D01*
X1145000Y22212487D01*
X1146566Y22217252D01*
X1168828Y22228500D01*
X3918987Y22228500D01*
X3923752Y22226934D01*
X3935000Y22204672D01*
X3935000Y21785000D01*
X3954500Y21725673D01*
X4035000Y21685000D01*
X5160000Y21685000D01*
X5219327Y21704500D01*
X5260000Y21785000D01*
X5260000Y21948987D01*
X5261566Y21953752D01*
X5283828Y21965000D01*
X7443987Y21965000D01*
X7448752Y21963434D01*
X7460000Y21941172D01*
X7460000Y21785000D01*
X7479500Y21725673D01*
X7560000Y21685000D01*
X8960000Y21685000D01*
X9019327Y21704500D01*
X9060000Y21785000D01*
X9060000Y21918987D01*
X9061566Y21923752D01*
X9083828Y21935000D01*
X11243987Y21935000D01*
X11248752Y21933434D01*
X11260000Y21911172D01*
X11260000Y21785000D01*
X11279500Y21725673D01*
X11360000Y21685000D01*
X15310000Y21685000D01*
X15369327Y21704500D01*
X15410000Y21785000D01*
X15410000Y21918987D01*
X15411566Y21923752D01*
X15433828Y21935000D01*
X17593987Y21935000D01*
X17598752Y21933434D01*
X17610000Y21911172D01*
X17610000Y20301013D01*
X17608434Y20296248D01*
X17586172Y20285000D01*
X15426013Y20285000D01*
X15421248Y20286566D01*
X15410000Y20308828D01*
X15410000Y20485000D01*
X15390500Y20544327D01*
X15310000Y20585000D01*
X11360000Y20585000D01*
X11300673Y20565500D01*
X11260000Y20485000D01*
X11260000Y20301013D01*
X11258434Y20296248D01*
X11236172Y20285000D01*
X9076013Y20285000D01*
X9071248Y20286566D01*
X9060000Y20308828D01*
X9060000Y20485000D01*
X9040500Y20544327D01*
X8960000Y20585000D01*
X7560000Y20585000D01*
X7500673Y20565500D01*
X7460000Y20485000D01*
X7460000Y20331013D01*
X7458434Y20326248D01*
X7436172Y20315000D01*
X5276013Y20315000D01*
X5271248Y20316566D01*
X5260000Y20338828D01*
X5260000Y20485000D01*
X5240500Y20544327D01*
X5160000Y20585000D01*
X4035000Y20585000D01*
X3975673Y20565500D01*
X3935000Y20485000D01*
X3935000Y20057513D01*
X3933434Y20052748D01*
X3911172Y20041500D01*
X1161013Y20041500D01*
X1161013Y300000D01*
X2641013Y300000D01*
X2641013Y4795000D01*
X2636248Y4796566D01*
X2625000Y4818828D01*
X2625000Y9965000D01*
X2605500Y10024327D01*
X2525000Y10065000D01*
X1896013Y10065000D01*
X1891248Y10066566D01*
X1880000Y10088828D01*
X1880000Y14048987D01*
X1881566Y14053752D01*
X1903828Y14065000D01*
X2528878Y14065000D01*
X2588205Y14084500D01*
X2621266Y14126732D01*
X2629454Y14146500D01*
X2651177Y14198944D01*
X2657678Y14210203D01*
X2739098Y14316311D01*
X2743404Y14321222D01*
X5716471Y17294289D01*
X5744633Y17350029D01*
X5734235Y17411607D01*
X5689331Y17455008D01*
X5645760Y17465000D01*
X5276013Y17465000D01*
X5271248Y17466566D01*
X5260000Y17488828D01*
X5260000Y19098987D01*
X5261566Y19103752D01*
X5283828Y19115000D01*
X7443987Y19115000D01*
X7448752Y19113434D01*
X7460000Y19091172D01*
X7460000Y17481013D01*
X7458434Y17476248D01*
X7436172Y17465000D01*
X6950000Y17465000D01*
X6890673Y17445500D01*
X6850000Y17365000D01*
X6850000Y17103281D01*
X6849571Y17096744D01*
X6832114Y16964146D01*
X6828751Y16951595D01*
X6808499Y16902704D01*
X6808498Y16902702D01*
X6778821Y16831054D01*
X6772321Y16819796D01*
X6690902Y16713689D01*
X6686596Y16708778D01*
X4213529Y14235711D01*
X4185367Y14179971D01*
X4195765Y14118393D01*
X4240669Y14074992D01*
X4284240Y14065000D01*
X4363987Y14065000D01*
X4368752Y14063434D01*
X4380000Y14041172D01*
X4380000Y10081013D01*
X4378434Y10076248D01*
X4356172Y10065000D01*
X3825000Y10065000D01*
X3765673Y10045500D01*
X3725000Y9965000D01*
X3725000Y4811013D01*
X3723434Y4806248D01*
X3701172Y4795000D01*
X2641013Y4795000D01*
X2641013Y300000D01*
X6271013Y300000D01*
X6271013Y4510000D01*
X6266248Y4511566D01*
X6255000Y4533828D01*
X6255000Y6993987D01*
X6256566Y6998752D01*
X6278828Y7010000D01*
X10238987Y7010000D01*
X10243752Y7008434D01*
X10255000Y6986172D01*
X10255000Y6520000D01*
X10274500Y6460673D01*
X10355000Y6420000D01*
X12770000Y6420000D01*
X12829327Y6439500D01*
X12870000Y6520000D01*
X12870000Y6678987D01*
X12871566Y6683752D01*
X12893828Y6695000D01*
X13490000Y6695000D01*
X13549327Y6714500D01*
X13590000Y6795000D01*
X13590000Y9580000D01*
X13570500Y9639327D01*
X13490000Y9680000D01*
X13156013Y9680000D01*
X13151248Y9681566D01*
X13140000Y9703828D01*
X13140000Y11263987D01*
X13141566Y11268752D01*
X13163828Y11280000D01*
X15123987Y11280000D01*
X15128752Y11278434D01*
X15150746Y11234904D01*
X15194905Y11190745D01*
X15256651Y11181396D01*
X15311903Y11210502D01*
X15340000Y11280000D01*
X15340000Y11580000D01*
X15320500Y11639327D01*
X15269605Y11675517D01*
X15207164Y11674455D01*
X15145000Y11611225D01*
X15138434Y11591248D01*
X15116172Y11580000D01*
X13156013Y11580000D01*
X13151248Y11581566D01*
X13140000Y11603828D01*
X13140000Y11730000D01*
X13120500Y11789327D01*
X13040000Y11830000D01*
X11360000Y11830000D01*
X11300673Y11810500D01*
X11260000Y11730000D01*
X11260000Y11411013D01*
X11258434Y11406248D01*
X11236172Y11395000D01*
X9076013Y11395000D01*
X9071248Y11396566D01*
X9060000Y11418828D01*
X9060000Y11570000D01*
X9040500Y11629327D01*
X8960000Y11670000D01*
X8380000Y11670000D01*
X8320673Y11650500D01*
X8280000Y11570000D01*
X8280000Y10081013D01*
X8278434Y10076248D01*
X8256172Y10065000D01*
X5796013Y10065000D01*
X5791248Y10066566D01*
X5780000Y10088828D01*
X5780000Y14048987D01*
X5781566Y14053752D01*
X5803828Y14065000D01*
X8263987Y14065000D01*
X8268752Y14063434D01*
X8280000Y14041172D01*
X8280000Y12870000D01*
X8299500Y12810673D01*
X8380000Y12770000D01*
X8960000Y12770000D01*
X9019327Y12789500D01*
X9060000Y12870000D01*
X9060000Y13028987D01*
X9061566Y13033752D01*
X9083828Y13045000D01*
X9510000Y13045000D01*
X9569327Y13064500D01*
X9610000Y13145000D01*
X9610000Y17335000D01*
X9590500Y17394327D01*
X9510000Y17435000D01*
X9076013Y17435000D01*
X9071248Y17436566D01*
X9060000Y17458828D01*
X9060000Y19068987D01*
X9061566Y19073752D01*
X9083828Y19085000D01*
X11243987Y19085000D01*
X11248752Y19083434D01*
X11260000Y19061172D01*
X11260000Y17451013D01*
X11258434Y17446248D01*
X11236172Y17435000D01*
X10810000Y17435000D01*
X10750673Y17415500D01*
X10710000Y17335000D01*
X10710000Y13145000D01*
X10729500Y13085673D01*
X10810000Y13045000D01*
X11243987Y13045000D01*
X11248752Y13043434D01*
X11268303Y13004740D01*
X11279500Y12970673D01*
X11360000Y12930000D01*
X13040000Y12930000D01*
X13099327Y12949500D01*
X13140000Y13030000D01*
X13140000Y13163987D01*
X13141566Y13168752D01*
X13163828Y13180000D01*
X15123987Y13180000D01*
X15128752Y13178434D01*
X15140000Y13156172D01*
X15140000Y12230000D01*
X15159500Y12170673D01*
X15210395Y12134483D01*
X15272836Y12135545D01*
X15335000Y12198775D01*
X15341566Y12218752D01*
X15363828Y12230000D01*
X15860000Y12230000D01*
X15919327Y12249500D01*
X15960000Y12330000D01*
X15960000Y17335000D01*
X15940500Y17394327D01*
X15860000Y17435000D01*
X15426013Y17435000D01*
X15421248Y17436566D01*
X15410000Y17458828D01*
X15410000Y19068987D01*
X15411566Y19073752D01*
X15433828Y19085000D01*
X17593987Y19085000D01*
X17598752Y19083434D01*
X17610000Y19061172D01*
X17610000Y17451013D01*
X17608434Y17446248D01*
X17586172Y17435000D01*
X17160000Y17435000D01*
X17100673Y17415500D01*
X17060000Y17335000D01*
X17060000Y12330000D01*
X17079500Y12270673D01*
X17160000Y12230000D01*
X17323987Y12230000D01*
X17328752Y12228434D01*
X17340000Y12206172D01*
X17340000Y12035000D01*
X17359500Y11975673D01*
X17440000Y11935000D01*
X18855000Y11935000D01*
X18914327Y11954500D01*
X18955000Y12035000D01*
X18955000Y12618987D01*
X18956566Y12623752D01*
X18971013Y12631051D01*
X18971013Y14035000D01*
X18966248Y14036566D01*
X18955000Y14058828D01*
X18955000Y16518987D01*
X18956566Y16523752D01*
X18978828Y16535000D01*
X22938987Y16535000D01*
X22943752Y16533434D01*
X22955000Y16511172D01*
X22955000Y15890000D01*
X22974500Y15830673D01*
X23055000Y15790000D01*
X25175000Y15790000D01*
X25234327Y15809500D01*
X25275000Y15890000D01*
X25275000Y16317487D01*
X25276566Y16322252D01*
X25298828Y16333500D01*
X28048987Y16333500D01*
X28053752Y16331934D01*
X28065000Y16309672D01*
X28065000Y14162513D01*
X28063434Y14157748D01*
X28041172Y14146500D01*
X25291013Y14146500D01*
X25286248Y14148066D01*
X25275000Y14170328D01*
X25275000Y14590000D01*
X25255500Y14649327D01*
X25175000Y14690000D01*
X23055000Y14690000D01*
X22995673Y14670500D01*
X22955000Y14590000D01*
X22955000Y14051013D01*
X22953434Y14046248D01*
X22931172Y14035000D01*
X18971013Y14035000D01*
X18971013Y12631051D01*
X18978828Y12635000D01*
X22938987Y12635000D01*
X22943752Y12633434D01*
X22955000Y12611172D01*
X22955000Y10151013D01*
X22953434Y10146248D01*
X22931172Y10135000D01*
X18971013Y10135000D01*
X18966248Y10136566D01*
X18955000Y10158828D01*
X18955000Y10735000D01*
X18935500Y10794327D01*
X18855000Y10835000D01*
X17440000Y10835000D01*
X17380673Y10815500D01*
X17340000Y10735000D01*
X17340000Y10646013D01*
X17338434Y10641248D01*
X17316172Y10630000D01*
X15356013Y10630000D01*
X15351248Y10631566D01*
X15329254Y10675096D01*
X15285095Y10719255D01*
X15223349Y10728604D01*
X15168097Y10699498D01*
X15140000Y10630000D01*
X15140000Y9696013D01*
X15138434Y9691248D01*
X15116172Y9680000D01*
X14790000Y9680000D01*
X14730673Y9660500D01*
X14690000Y9580000D01*
X14690000Y6795000D01*
X14709500Y6735673D01*
X14790000Y6695000D01*
X15053987Y6695000D01*
X15058752Y6693434D01*
X15070000Y6671172D01*
X15070000Y5061013D01*
X15068434Y5056248D01*
X15046172Y5045000D01*
X12886013Y5045000D01*
X12881248Y5046566D01*
X12870000Y5068828D01*
X12870000Y5220000D01*
X12850500Y5279327D01*
X12770000Y5320000D01*
X10355000Y5320000D01*
X10295673Y5300500D01*
X10255000Y5220000D01*
X10255000Y4526013D01*
X10253434Y4521248D01*
X10231172Y4510000D01*
X6271013Y4510000D01*
X6271013Y300000D01*
X29110000Y300000D01*
X29169327Y319500D01*
G37*
G04 --- BOARD END --- *
%TF.MD5,9674d9d6fb50959d6fcf2cf5318f24b3*%
M02*
