G04 --- HEADER BEGIN --- *
%TF.GenerationSoftware,LibrePCB,LibrePCB,0.1.5*%
%TF.CreationDate,2021-06-20T18:39:02*%
%TF.ProjectId,Project_1 - Project_1,33df2010-fc84-4cad-912d-d0e73ea2b767,v1*%
%TF.Part,Single*%
%FSLAX66Y66*%
%MOMM*%
G01*
G74*
G04 --- HEADER END --- *
G04 --- APERTURE LIST BEGIN --- *
%ADD10C,0.25*%
%ADD11C,3.8X3.4*%
%ADD12C,0.1524*%
%ADD13C,0.2*%
%ADD14R,3.6X2.1*%
%ADD15R,1.8X1.25*%
%ADD16O,2.39X1.787*%
%ADD17R,2.39X1.787*%
%ADD18R,0.7X0.7*%
%ADD19R,1.6X1.2*%
%ADD20R,2.1X3.6*%
G04 --- APERTURE LIST END --- *
G04 --- BOARD BEGIN --- *
D10*
X9235000Y19060000D02*
X9235000Y20310000D01*
X11085000Y19060000D02*
X11085000Y20310000D01*
X15585000Y19060000D02*
X15585000Y20310000D01*
X17435000Y19060000D02*
X17435000Y20310000D01*
X13045000Y3820000D02*
X13045000Y5070000D01*
X14895000Y3820000D02*
X14895000Y5070000D01*
X28065000Y16365000D02*
X28065000Y14240000D01*
X27795000Y13970000D01*
X28065000Y13700000D01*
X28065000Y11575000D01*
X27795000Y11305000D01*
X25545000Y11305000D01*
X25275000Y11575000D01*
X25275000Y13700000D01*
X25545000Y13970000D01*
X25275000Y14240000D01*
X25275000Y16365000D01*
X25545000Y16635000D01*
X27795000Y16635000D01*
X28065000Y16365000D01*
X5435000Y19090000D02*
X5435000Y20340000D01*
X7285000Y19090000D02*
X7285000Y20340000D01*
X9235000Y10170000D02*
X9235000Y11420000D01*
X11085000Y10170000D02*
X11085000Y11420000D01*
D11*
X2275000Y4445000D03*
D10*
X3935000Y22260000D02*
X3935000Y20135000D01*
X3665000Y19865000D01*
X3935000Y19595000D01*
X3935000Y17470000D01*
X3665000Y17200000D01*
X1415000Y17200000D01*
X1145000Y17470000D01*
X1145000Y19595000D01*
X1415000Y19865000D01*
X1145000Y20135000D01*
X1145000Y22260000D01*
X1415000Y22530000D01*
X3665000Y22530000D01*
X3935000Y22260000D01*
D12*
X15900400Y10007600D02*
X15087600Y10007600D01*
X15087600Y12852400D02*
X15900400Y12852400D01*
X15900400Y12852400D02*
X15900400Y12293600D01*
X15900400Y10566400D02*
X15900400Y10007600D01*
D13*
X5936944Y2206389D02*
X5984722Y2158611D01*
X6032500Y2016389D01*
X6032500Y1920833D01*
X5984722Y1777500D01*
X5889167Y1683056D01*
X5794722Y1635278D01*
X5603611Y1587500D01*
X5461389Y1587500D01*
X5270278Y1635278D01*
X5175833Y1683056D01*
X5080278Y1777500D01*
X5032500Y1920833D01*
X5032500Y2016389D01*
X5080278Y2158611D01*
X5128056Y2206389D01*
X5509167Y2606389D02*
X5509167Y2939722D01*
X6032500Y3083056D02*
X6032500Y2606389D01*
X5032500Y2606389D01*
X5032500Y3083056D01*
X8560000Y18999445D02*
X8083333Y18666112D01*
X8560000Y18428334D02*
X7560000Y18428334D01*
X7560000Y18809445D01*
X7607778Y18905001D01*
X7655556Y18951667D01*
X7750000Y18999445D01*
X7893333Y18999445D01*
X7988889Y18951667D01*
X8036667Y18905001D01*
X8083333Y18809445D01*
X8083333Y18428334D01*
X8036667Y19732778D02*
X8083333Y19876112D01*
X8131111Y19922778D01*
X8226667Y19970556D01*
X8370000Y19970556D01*
X8464444Y19922778D01*
X8512222Y19876112D01*
X8560000Y19780556D01*
X8560000Y19399445D01*
X7560000Y19399445D01*
X7560000Y19732778D01*
X7607778Y19828334D01*
X7655556Y19876112D01*
X7750000Y19922778D01*
X7845556Y19922778D01*
X7941111Y19876112D01*
X7988889Y19828334D01*
X8036667Y19732778D01*
X8036667Y19399445D01*
X8560000Y20941667D02*
X8560000Y20370556D01*
X8560000Y20656112D02*
X7560000Y20656112D01*
X7703333Y20560556D01*
X7797778Y20466112D01*
X7845556Y20370556D01*
X14910000Y19532222D02*
X14433333Y19198889D01*
X14910000Y18961111D02*
X13910000Y18961111D01*
X13910000Y19342222D01*
X13957778Y19437778D01*
X14005556Y19484444D01*
X14100000Y19532222D01*
X14243333Y19532222D01*
X14338889Y19484444D01*
X14386667Y19437778D01*
X14433333Y19342222D01*
X14433333Y18961111D01*
X14862222Y20408889D02*
X14910000Y20313333D01*
X14910000Y20122222D01*
X14862222Y20027778D01*
X14814444Y19980000D01*
X14720000Y19932222D01*
X14433333Y19932222D01*
X14338889Y19980000D01*
X14291111Y20027778D01*
X14243333Y20122222D01*
X14243333Y20313333D01*
X14291111Y20408889D01*
X12370000Y4292222D02*
X11893333Y3958889D01*
X12370000Y3721111D02*
X11370000Y3721111D01*
X11370000Y4102222D01*
X11417778Y4197778D01*
X11465556Y4244444D01*
X11560000Y4292222D01*
X11703333Y4292222D01*
X11798889Y4244444D01*
X11846667Y4197778D01*
X11893333Y4102222D01*
X11893333Y3721111D01*
X11846667Y4692222D02*
X11846667Y5025555D01*
X12370000Y5168889D02*
X12370000Y4692222D01*
X11370000Y4692222D01*
X11370000Y5168889D01*
X26375000Y18780000D02*
X26375000Y18065556D01*
X26327222Y17923333D01*
X26231667Y17827778D01*
X26089445Y17780000D01*
X25993889Y17780000D01*
X27346111Y17780000D02*
X26775000Y17780000D01*
X27060556Y17780000D02*
X27060556Y18780000D01*
X26965000Y18636667D01*
X26870556Y18542222D01*
X26775000Y18494444D01*
X4760000Y19515000D02*
X4283333Y19181667D01*
X4760000Y18943889D02*
X3760000Y18943889D01*
X3760000Y19325000D01*
X3807778Y19420556D01*
X3855556Y19467222D01*
X3950000Y19515000D01*
X4093333Y19515000D01*
X4188889Y19467222D01*
X4236667Y19420556D01*
X4283333Y19325000D01*
X4283333Y18943889D01*
X4760000Y20486111D02*
X4760000Y19915000D01*
X4760000Y20200556D02*
X3760000Y20200556D01*
X3903333Y20105000D01*
X3997778Y20010556D01*
X4045556Y19915000D01*
X8560000Y10085556D02*
X8083333Y9752223D01*
X8560000Y9514445D02*
X7560000Y9514445D01*
X7560000Y9895556D01*
X7607778Y9991112D01*
X7655556Y10037778D01*
X7750000Y10085556D01*
X7893333Y10085556D01*
X7988889Y10037778D01*
X8036667Y9991112D01*
X8083333Y9895556D01*
X8083333Y9514445D01*
X8036667Y10818889D02*
X8083333Y10962223D01*
X8131111Y11008889D01*
X8226667Y11056667D01*
X8370000Y11056667D01*
X8464444Y11008889D01*
X8512222Y10962223D01*
X8560000Y10866667D01*
X8560000Y10485556D01*
X7560000Y10485556D01*
X7560000Y10818889D01*
X7607778Y10914445D01*
X7655556Y10962223D01*
X7750000Y11008889D01*
X7845556Y11008889D01*
X7941111Y10962223D01*
X7988889Y10914445D01*
X8036667Y10818889D01*
X8036667Y10485556D01*
X7655556Y11504445D02*
X7607778Y11552223D01*
X7560000Y11646667D01*
X7560000Y11885556D01*
X7607778Y11980000D01*
X7655556Y12027778D01*
X7750000Y12075556D01*
X7845556Y12075556D01*
X7988889Y12027778D01*
X8560000Y11456667D01*
X8560000Y12075556D01*
X7775000Y2916667D02*
X6775000Y2916667D01*
X7489444Y3250000D01*
X6775000Y3583334D01*
X7775000Y3583334D01*
X7775000Y3983334D02*
X6775000Y3983334D01*
X7679444Y5002223D02*
X7727222Y4954445D01*
X7775000Y4812223D01*
X7775000Y4716667D01*
X7727222Y4573334D01*
X7631667Y4478890D01*
X7537222Y4431112D01*
X7346111Y4383334D01*
X7203889Y4383334D01*
X7012778Y4431112D01*
X6918333Y4478890D01*
X6822778Y4573334D01*
X6775000Y4716667D01*
X6775000Y4812223D01*
X6822778Y4954445D01*
X6870556Y5002223D01*
X7775000Y5973334D02*
X7775000Y5402223D01*
X7775000Y5687779D02*
X6775000Y5687779D01*
X6918333Y5592223D01*
X7012778Y5497779D01*
X7060556Y5402223D01*
X2221111Y24675000D02*
X2221111Y23960556D01*
X2173333Y23818333D01*
X2077778Y23722778D01*
X1935556Y23675000D01*
X1840000Y23675000D01*
X2668889Y24579444D02*
X2716667Y24627222D01*
X2811111Y24675000D01*
X3050000Y24675000D01*
X3144444Y24627222D01*
X3192222Y24579444D01*
X3240000Y24485000D01*
X3240000Y24389444D01*
X3192222Y24246111D01*
X2621111Y23675000D01*
X3240000Y23675000D01*
X14468889Y14335000D02*
X15040000Y14335000D01*
X14754445Y13335000D02*
X14754445Y14335000D01*
X16011111Y13335000D02*
X15440000Y13335000D01*
X15725556Y13335000D02*
X15725556Y14335000D01*
X15630000Y14191667D01*
X15535556Y14097222D01*
X15440000Y14049444D01*
X24081944Y14538611D02*
X24129722Y14490833D01*
X24177500Y14348611D01*
X24177500Y14253055D01*
X24129722Y14109722D01*
X24034167Y14015278D01*
X23939722Y13967500D01*
X23748611Y13919722D01*
X23606389Y13919722D01*
X23415278Y13967500D01*
X23320833Y14015278D01*
X23225278Y14109722D01*
X23177500Y14253055D01*
X23177500Y14348611D01*
X23225278Y14490833D01*
X23273056Y14538611D01*
X23177500Y14938611D02*
X23177500Y15557500D01*
X23558611Y15224167D01*
X23558611Y15367500D01*
X23606389Y15461944D01*
X23654167Y15509722D01*
X23748611Y15557500D01*
X23987500Y15557500D01*
X24081944Y15509722D01*
X24129722Y15461944D01*
X24177500Y15367500D01*
X24177500Y15081944D01*
X24129722Y14986389D01*
X24081944Y14938611D01*
X3476389Y14383056D02*
X3428611Y14335278D01*
X3286389Y14287500D01*
X3190833Y14287500D01*
X3047500Y14335278D01*
X2953056Y14430833D01*
X2905278Y14525278D01*
X2857500Y14716389D01*
X2857500Y14858611D01*
X2905278Y15049722D01*
X2953056Y15144167D01*
X3047500Y15239722D01*
X3190833Y15287500D01*
X3286389Y15287500D01*
X3428611Y15239722D01*
X3476389Y15191944D01*
X4447500Y14287500D02*
X3876389Y14287500D01*
X4161945Y14287500D02*
X4161945Y15287500D01*
X4066389Y15144167D01*
X3971945Y15049722D01*
X3876389Y15001944D01*
%LPC*%
D14*
X8255000Y5760000D03*
X8255000Y1860000D03*
D15*
X10160000Y21110000D03*
X10160000Y18260000D03*
X16510000Y21110000D03*
X16510000Y18260000D03*
X13970000Y5870000D03*
X13970000Y3020000D03*
D16*
X26670000Y12700000D03*
D17*
X26670000Y15240000D03*
D15*
X6360000Y21140000D03*
X6360000Y18290000D03*
X10160000Y12220000D03*
X10160000Y9370000D03*
D18*
X3175000Y5345000D03*
X3175000Y3545000D03*
D16*
X2540000Y18595000D03*
D17*
X2540000Y21135000D03*
D19*
X14140000Y10480000D03*
X16340000Y11430000D03*
X14140000Y12380000D03*
D14*
X20955000Y11385000D03*
X20955000Y15285000D03*
D20*
X7030000Y12065000D03*
X3130000Y12065000D03*
G04 --- BOARD END --- *
%TF.MD5,4dc179caed06cecf940ff0d4628fe19c*%
M02*
