M48
;DRILL FILE
;Generated by LibrePCB 0.1.5
;Creation Date: 2021-06-20T18:39:02
FMAT,2
METRIC,TZ
T1C0.3
T2C0.45
T3C0.9
%
G90
G05
M71
T1
X4.2Y9.3
X4.8Y20.4
X23.7Y16.5
X2.1Y7.2
X12.3Y21.9
X23.7Y14.1
X8.1Y21.9
X4.2Y7.2
X8.1Y20.1
X2.1Y9.3
X24.6Y16.5
X4.8Y21.9
X14.1Y21.9
X14.1Y19.8
X12.3Y19.8
X24.6Y14.1
T2
X3.175Y3.545
X3.175Y5.345
T3
X2.54Y21.135
X2.54Y18.595
X26.67Y15.24
X26.67Y12.7
T0
M30
